<svg fill="#fff" xmlns="http://www.w3.org/2000/svg"  viewBox="0 0 30 30" width="30px" height="30px"><path d="M19,7h-8l0.621-2.485C11.844,3.625,12.644,3,13.562,3h2.877c0.918,0,1.718,0.625,1.94,1.515L19,7z"/><path d="M27 5H3C1.895 5 1 5.895 1 7v5h5.277C6.624 11.405 7.262 11 8 11s1.376.405 1.723 1h10.555c.346-.595.984-1 1.723-1s1.376.405 1.723 1H29V7C29 5.895 28.105 5 27 5zM23.723 14c-.346.595-.984 1-1.723 1s-1.376-.405-1.723-1H9.723C9.376 14.595 8.738 15 8 15s-1.376-.405-1.723-1H2v9c0 1.105.895 2 2 2h22c1.105 0 2-.895 2-2v-9H23.723z"/></svg>
